<svg xmlns="http://www.w3.org/2000/svg" width="40" height="40" viewBox="0 0 40 40">
  <circle cx="20" cy="20" r="18" fill="#4CAF50" stroke="white" stroke-width="2"/>
  <path d="M20 30c4.42 0 8-3.58 8-8s-3.58-8-8-8-8 3.58-8 8 3.58 8 8 8zm3.5-12c.83 0 1.5.67 1.5 1.5s-.67 1.5-1.5 1.5-1.5-.67-1.5-1.5.67-1.5 1.5-1.5zm-7 0c.83 0 1.5.67 1.5 1.5s-.67 1.5-1.5 1.5-1.5-.67-1.5-1.5.67-1.5 1.5-1.5zm3.5 6.5c2.33 0 4.31-1.46 5.11-3.5H14.89c.8 2.04 2.78 3.5 5.11 3.5z" fill="white"/>
  <circle cx="30" cy="10" r="8" fill="#2196F3" stroke="white" stroke-width="2"/>
  <path d="M28.4 13.4l-2.9-2.9c-.2-.2-.2-.5 0-.7l.7-.7c.2-.2.5-.2.7 0l1.9 1.9 4.1-4.1c.2-.2.5-.2.7 0l.7.7c.2.2.2.5 0 .7l-5.2 5.2c-.2.1-.5.1-.7-.1z" fill="white"/>
</svg>